<svg width="191" height="179" viewBox="0 0 191 179" fill="none" xmlns="http://www.w3.org/2000/svg">
<path d="M70.589 30.7007L105.37 57.1662L105.568 57.3169L105.807 57.2498L153.064 44.0158L131.932 84.6357L131.795 84.8999L131.961 85.1466L155.657 120.181L107.769 118.953L107.545 118.948L107.391 119.112L74.6689 154.097L66.3281 112.632L66.2694 112.34L65.9847 112.253L22.2138 98.8126L64.7986 74.4233L65.0145 74.2996L65.0461 74.0528L70.589 30.7007Z" stroke="#FFDEF2" stroke-opacity="0.55"/>
<path d="M78.0612 88.5785L77.5336 88.1184L76.4736 89.3342L78.0856 89.278L78.0612 88.5785ZM80.5751 89.1387L80.9246 88.5322L80.5751 89.1387ZM81.8035 94.5565L82.3817 94.9511L82.3852 94.9458L81.8035 94.5565ZM69.7284 100.71L69.081 100.976L69.3471 101.624L69.9946 101.358L69.7284 100.71ZM63.8726 86.4671L63.6064 85.8196L62.959 86.0858L63.2252 86.7332L63.8726 86.4671ZM76.1941 82.5907L76.039 83.2733L76.0435 83.2742L76.1941 82.5907ZM78.9992 86.6943L78.3104 86.5689L78.3083 86.5816L78.9992 86.6943ZM69.9735 87.8836L69.7073 87.2362L69.0599 87.5024L69.3261 88.1498L69.9735 87.8836ZM70.8435 89.9997L70.1961 90.2659L70.4623 90.9133L71.1097 90.6472L70.8435 89.9997ZM72.1485 93.174L71.8823 92.5265L71.2349 92.7927L71.5011 93.4401L72.1485 93.174ZM73.0687 95.4122L72.4213 95.6783L72.6875 96.3258L73.3349 96.0596L73.0687 95.4122ZM78.0856 89.278C78.9491 89.248 79.6523 89.4148 80.2255 89.7452L80.9246 88.5322C80.0846 88.0481 79.112 87.8414 78.0369 87.8789L78.0856 89.278ZM80.2255 89.7452C80.7825 90.0662 81.2122 90.5621 81.5062 91.2772L82.801 90.7449C82.4035 89.778 81.7808 89.0257 80.9246 88.5322L80.2255 89.7452ZM81.5062 91.2772C81.9311 92.3108 81.8377 93.2467 81.2217 94.1673L82.3852 94.9458C83.2623 93.635 83.4023 92.2073 82.801 90.7449L81.5062 91.2772ZM81.2253 94.162C80.5831 95.103 79.3736 95.988 77.4791 96.7669L78.0115 98.0617C80.0237 97.2344 81.5196 96.2143 82.3817 94.9511L81.2253 94.162ZM77.4791 96.7669L69.4622 100.063L69.9946 101.358L78.0115 98.0617L77.4791 96.7669ZM70.3758 100.444L64.52 86.2009L63.2252 86.7332L69.081 100.976L70.3758 100.444ZM64.1388 87.1145L71.7487 83.9858L71.2164 82.691L63.6064 85.8196L64.1388 87.1145ZM71.7487 83.9858C73.5892 83.2291 75.0001 83.0371 76.039 83.2732L76.3493 81.9081C74.9042 81.5796 73.174 81.8861 71.2164 82.691L71.7487 83.9858ZM76.0435 83.2742C77.0899 83.5049 77.7543 84.0607 78.1243 84.9607L79.4192 84.4284C78.8634 83.0767 77.8094 82.2298 76.3448 81.9071L76.0435 83.2742ZM78.1243 84.9607C78.3498 85.5091 78.4068 86.04 78.3105 86.569L79.6879 86.8196C79.8349 86.0116 79.7403 85.2094 79.4192 84.4284L78.1243 84.9607ZM78.3083 86.5816C78.2247 87.095 77.9801 87.6064 77.5336 88.1184L78.5888 89.0385C79.1769 88.3641 79.5577 87.6193 79.6901 86.8069L78.3083 86.5816ZM69.3261 88.1498L70.1961 90.2659L71.4909 89.7336L70.6209 87.6174L69.3261 88.1498ZM71.1097 90.6472L73.3479 89.727L72.8156 88.4321L70.5773 89.3523L71.1097 90.6472ZM73.3479 89.727C73.9227 89.4906 74.4293 89.1732 74.731 88.7195C75.0654 88.2165 75.082 87.6489 74.8609 87.1112L73.5661 87.6435C73.635 87.8112 73.608 87.8799 73.5651 87.9444C73.4896 88.058 73.2852 88.239 72.8156 88.4321L73.3479 89.727ZM74.8609 87.1112C74.6398 86.5734 74.2287 86.1816 73.6373 86.0593C73.1037 85.949 72.5204 86.0797 71.9456 86.316L72.4779 87.6108C72.9476 87.4177 73.2201 87.4027 73.3538 87.4303C73.4296 87.446 73.4971 87.4759 73.5661 87.6435L74.8609 87.1112ZM71.9456 86.316L69.7073 87.2362L70.2397 88.531L72.4779 87.6108L71.9456 86.316ZM76.2242 94.8717C76.8096 94.631 77.3234 94.3033 77.624 93.8308C77.9539 93.3121 77.9572 92.733 77.7325 92.1865L76.4376 92.7188C76.5197 92.9184 76.4884 93.0076 76.4427 93.0794C76.3676 93.1975 76.1646 93.3825 75.6919 93.5769L76.2242 94.8717ZM77.7325 92.1865C77.5078 91.6399 77.0981 91.2306 76.4988 91.094C75.9528 90.9695 75.3571 91.098 74.7717 91.3386L75.304 92.6335C75.7767 92.4391 76.0512 92.4279 76.1876 92.459C76.2707 92.4779 76.3556 92.5193 76.4376 92.7188L77.7325 92.1865ZM74.7717 91.3386L71.8823 92.5265L72.4147 93.8214L75.304 92.6335L74.7717 91.3386ZM71.5011 93.4401L72.4213 95.6783L73.7161 95.146L72.7959 92.9078L71.5011 93.4401ZM73.3349 96.0596L76.2242 94.8717L75.6919 93.5769L72.8025 94.7648L73.3349 96.0596ZM95.2559 84.9583L95.5221 85.6057L96.1303 85.3557L95.9186 84.7331L95.2559 84.9583ZM87.5238 88.1372L87.2577 87.4898L86.3128 87.8782L87.0162 88.6191L87.5238 88.1372ZM88.7393 88.7793L88.6308 89.4708L88.64 89.4722L88.6492 89.4734L88.7393 88.7793ZM91.443 87.8342L90.9732 87.3151L90.9665 87.3214L91.443 87.8342ZM92.2824 86.7517L92.5548 86.1068L91.99 85.8683L91.6791 86.3968L92.2824 86.7517ZM95.6789 88.1859L96.337 88.4245L96.5635 87.7996L95.9512 87.541L95.6789 88.1859ZM87.7104 92.6989L87.6627 93.3973L87.6702 93.3977L87.7104 92.6989ZM84.4969 91.5938L84.9024 91.0233L84.4969 91.5938ZM82.0338 85.6607L81.3442 85.5405L81.3437 85.5433L82.0338 85.6607ZM83.4475 82.6771L82.9173 82.22L82.9147 82.2231L83.4475 82.6771ZM89.7301 80.0228L89.6869 80.7214L89.6909 80.7217L89.7301 80.0228ZM92.7594 81.0846L92.3514 81.6535L92.3578 81.658L92.7594 81.0846ZM86.6893 84.6031L87.3069 84.9327L86.6893 84.6031ZM86.5306 85.9528L85.8436 86.0868L86.0071 86.9249L86.7968 86.6002L86.5306 85.9528ZM90.1118 84.4805L90.378 85.1279L91.1722 84.8013L90.6922 84.0892L90.1118 84.4805ZM89.058 83.653L88.834 84.3162L88.8424 84.319L88.8509 84.3217L89.058 83.653ZM94.2261 84.121C94.2256 84.1198 94.2332 84.1394 94.2538 84.197C94.2722 84.2486 94.2971 84.3196 94.3286 84.4107C94.3917 84.5927 94.4798 84.8501 94.5931 85.1836L95.9186 84.7331C95.6977 84.0829 95.5597 83.6829 95.521 83.5886L94.2261 84.121ZM94.9897 84.3109L87.2577 87.4898L87.79 88.7846L95.5221 85.6057L94.9897 84.3109ZM87.0162 88.6191C87.4564 89.0829 88.0012 89.372 88.6308 89.4708L88.8478 88.0877C88.5281 88.0376 88.2626 87.8987 88.0315 87.6553L87.0162 88.6191ZM88.6492 89.4734C89.2702 89.554 89.9144 89.4336 90.5636 89.1667L90.0313 87.8718C89.541 88.0734 89.1464 88.1262 88.8294 88.0851L88.6492 89.4734ZM90.5636 89.1667C91.1006 88.9459 91.5633 88.678 91.9196 88.3469L90.9665 87.3214C90.772 87.5022 90.471 87.691 90.0313 87.8718L90.5636 89.1667ZM91.9127 88.3532C92.2697 88.0301 92.5915 87.607 92.8858 87.1066L91.6791 86.3968C91.4321 86.8167 91.1942 87.1152 90.9733 87.3152L91.9127 88.3532ZM92.0101 87.3965L95.4066 88.8308L95.9512 87.541L92.5548 86.1068L92.0101 87.3965ZM95.0208 87.9474C94.5142 89.3451 93.3247 90.4902 91.2859 91.3284L91.8182 92.6232C94.0931 91.688 95.6549 90.3064 96.337 88.4245L95.0208 87.9474ZM91.2859 91.3284C90.0217 91.8481 88.846 92.0631 87.7506 92.0001L87.6702 93.3977C89.0111 93.4749 90.3965 93.2077 91.8182 92.6232L91.2859 91.3284ZM87.7582 92.0005C86.6515 91.9249 85.7067 91.595 84.9024 91.0233L84.0913 92.1644C85.1244 92.8988 86.322 93.3056 87.6627 93.3973L87.7582 92.0005ZM84.9024 91.0233C84.0974 90.4511 83.493 89.6834 83.0887 88.6999L81.7938 89.2323C82.293 90.4464 83.0589 91.4305 84.0913 92.1644L84.9024 91.0233ZM83.0887 88.6999C82.6768 87.698 82.5621 86.7289 82.7239 85.7782L81.3437 85.5433C81.1341 86.775 81.2911 88.0095 81.7938 89.2323L83.0887 88.6999ZM82.7234 85.781C82.895 84.797 83.3106 83.917 83.9803 83.1311L82.9147 82.2231C82.0868 83.1946 81.5599 84.3037 81.3442 85.5405L82.7234 85.781ZM83.9776 83.1342C84.6608 82.3416 85.5449 81.7153 86.6477 81.2619L86.1154 79.9671C84.8308 80.4952 83.7588 81.2439 82.9173 82.22L83.9776 83.1342ZM86.6477 81.2619C87.6854 80.8353 88.6961 80.6602 89.6869 80.7214L89.7733 79.3241C88.5511 79.2485 87.3295 79.4679 86.1154 79.9671L86.6477 81.2619ZM89.6909 80.7217C90.68 80.7772 91.5615 81.087 92.3515 81.6535L93.1673 80.5158C92.1582 79.7921 91.0202 79.394 89.7693 79.3239L89.6909 80.7217ZM92.3578 81.658C93.1436 82.2084 93.7718 83.0159 94.2261 84.121L95.521 83.5886C94.9826 82.2791 94.2013 81.2399 93.161 80.5113L92.3578 81.658ZM87.4444 83.0838C86.8464 83.3297 86.3673 83.7198 86.0718 84.2734L87.3069 84.9327C87.4234 84.7143 87.6251 84.5232 87.9767 84.3787L87.4444 83.0838ZM86.0718 84.2734C85.7758 84.8279 85.7188 85.4473 85.8436 86.0868L87.2177 85.8187C87.142 85.4306 87.1907 85.1502 87.3069 84.9327L86.0718 84.2734ZM86.7968 86.6002L90.378 85.1279L89.8456 83.833L86.2644 85.3054L86.7968 86.6002ZM90.6922 84.0892C90.3337 83.5574 89.8597 83.1685 89.2651 82.9844L88.8509 84.3217C89.0922 84.3964 89.3207 84.5592 89.5313 84.8717L90.6922 84.0892ZM89.282 82.9898C88.675 82.7848 88.0506 82.8346 87.4444 83.0838L87.9767 84.3787C88.3199 84.2376 88.5939 84.2351 88.834 84.3162L89.282 82.9898ZM106.658 85.0755L107.209 85.5068L107.567 85.0493L107.184 84.6133L106.658 85.0755ZM100.011 87.19L99.7742 87.8489L99.7801 87.8509L100.011 87.19ZM96.1809 81.462L96.8283 81.1958L96.5622 80.5484L95.9148 80.8145L96.1809 81.462ZM94.6549 82.0894L94.0074 82.3555L94.2736 83.003L94.921 82.7368L94.6549 82.0894ZM93.2746 78.732L93.0084 78.0846L92.361 78.3508L92.6272 78.9982L93.2746 78.732ZM94.8006 78.1046L95.0668 78.752L95.7142 78.4859L95.448 77.8384L94.8006 78.1046ZM93.5207 74.9915L93.2545 74.344L92.6071 74.6102L92.8733 75.2576L93.5207 74.9915ZM98.1193 73.1009L98.7667 72.8347L98.5005 72.1873L97.8531 72.4535L98.1193 73.1009ZM99.3992 76.214L98.7517 76.4802L99.0179 77.1276L99.6653 76.8615L99.3992 76.214ZM101.678 75.2771L102.325 75.0109L102.059 74.3635L101.412 74.6297L101.678 75.2771ZM103.058 78.6344L103.325 79.2819L103.972 79.0157L103.706 78.3683L103.058 78.6344ZM100.779 79.5714L100.513 78.9239L99.8659 79.1901L100.132 79.8375L100.779 79.5714ZM102.525 83.0641L102.231 83.6997L102.231 83.6997L102.525 83.0641ZM104.246 82.3327L104.771 81.8704L104.166 81.1816L103.661 81.9477L104.246 82.3327ZM106.107 84.6443C105.679 85.1904 104.939 85.715 103.806 86.181L104.338 87.4758C105.592 86.9602 106.576 86.3163 107.209 85.5068L106.107 84.6443ZM103.806 86.181C102.343 86.7825 101.174 86.8544 100.241 86.529L99.7801 87.8509C101.143 88.3262 102.682 88.157 104.338 87.4758L103.806 86.181ZM100.247 86.5311C99.336 86.2042 98.5693 85.4303 97.9995 84.0444L96.7047 84.5768C97.373 86.2023 98.3786 87.348 99.7742 87.8488L100.247 86.5311ZM97.9995 84.0444L96.8283 81.1958L95.5335 81.7281L96.7047 84.5768L97.9995 84.0444ZM95.9148 80.8145L94.3887 81.4419L94.921 82.7368L96.4471 82.1094L95.9148 80.8145ZM95.3023 81.8232L93.922 78.4659L92.6272 78.9982L94.0074 82.3555L95.3023 81.8232ZM93.5407 79.3794L95.0668 78.752L94.5345 77.4572L93.0084 78.0846L93.5407 79.3794ZM95.448 77.8384L94.1681 74.7253L92.8733 75.2576L94.1532 78.3708L95.448 77.8384ZM93.7869 75.6389L98.3854 73.7483L97.8531 72.4535L93.2545 74.344L93.7869 75.6389ZM97.4718 73.367L98.7517 76.4802L100.047 75.9479L98.7667 72.8347L97.4718 73.367ZM99.6653 76.8615L101.944 75.9245L101.412 74.6297L99.133 75.5666L99.6653 76.8615ZM101.031 75.5433L102.411 78.9006L103.706 78.3683L102.325 75.0109L101.031 75.5433ZM102.792 77.987L100.513 78.9239L101.046 80.2188L103.325 79.2819L102.792 77.987ZM100.132 79.8375L101.286 82.6455L102.581 82.1131L101.427 79.3052L100.132 79.8375ZM101.286 82.6455C101.472 83.0962 101.772 83.4877 102.231 83.6997L102.818 82.4285C102.769 82.4057 102.675 82.3407 102.581 82.1131L101.286 82.6455ZM102.231 83.6997C102.681 83.9073 103.155 83.8949 103.6 83.712L103.067 82.4171C102.943 82.4684 102.877 82.4558 102.818 82.4285L102.231 83.6997ZM103.6 83.712C104.111 83.5017 104.531 83.1718 104.83 82.7177L103.661 81.9477C103.531 82.1459 103.343 82.3039 103.067 82.4171L103.6 83.712ZM103.72 82.795L106.132 85.5378L107.184 84.6133L104.771 81.8704L103.72 82.795ZM113.322 71.0847L113.103 71.7498L113.108 71.7514L113.322 71.0847ZM118.984 80.4599L119.25 81.1073L119.897 80.8412L119.631 80.1938L118.984 80.4599ZM114.711 82.2167L114.064 82.4828L114.33 83.1303L114.977 82.8641L114.711 82.2167ZM114.109 80.7517L114.756 80.4855L113.41 80.714L114.109 80.7517ZM109.198 84.1977L109.14 84.8953L109.15 84.8961L109.159 84.8966L109.198 84.1977ZM107.284 83.5337L106.861 84.0919L106.87 84.0983L106.879 84.1045L107.284 83.5337ZM106.321 78.9345L105.737 78.5478L106.321 78.9345ZM111.646 75.746L111.912 76.3934L112.681 76.0775L112.239 75.374L111.646 75.746ZM107.589 76.1769L108.025 76.7248L108.032 76.7196L108.038 76.7141L107.589 76.1769ZM106.526 77.3515L106.059 77.8728L106.689 78.4368L107.125 77.7133L106.526 77.3515ZM103.815 74.922L103.248 74.5108L102.877 75.0219L103.348 75.4433L103.815 74.922ZM105.737 73.0611L106.149 73.6276L106.155 73.6231L105.737 73.0611ZM112.653 79.7564L112.068 79.3724L112.653 79.7564ZM112.896 78.7287L113.595 78.6889L113.589 78.5714L113.544 78.4625L112.896 78.7287ZM112.578 77.9555L113.226 77.6893L112.96 77.0419L112.312 77.308L112.578 77.9555ZM110.972 80.4711L110.727 81.1267L110.751 81.1357L110.776 81.143L110.972 80.4711ZM108.568 72.25C110.433 71.4829 111.925 71.3627 113.103 71.7498L113.54 70.4197C111.931 69.891 110.076 70.116 108.035 70.9551L108.568 72.25ZM113.108 71.7514C114.237 72.1127 115.179 73.0467 115.877 74.7439L117.172 74.2116C116.375 72.2734 115.182 70.9454 113.535 70.4181L113.108 71.7514ZM115.877 74.7439L118.336 80.7261L119.631 80.1938L117.172 74.2116L115.877 74.7439ZM118.718 79.8125L114.445 81.5692L114.977 82.8641L119.25 81.1073L118.718 79.8125ZM115.358 81.9505L114.756 80.4855L113.461 81.0178L114.064 82.4828L115.358 81.9505ZM113.41 80.714C113.357 81.6946 112.781 82.491 111.375 83.0694L111.907 84.3642C113.647 83.6487 114.717 82.4684 114.808 80.7894L113.41 80.714ZM111.375 83.0694C110.564 83.4027 109.855 83.5335 109.237 83.4988L109.159 84.8966C110.035 84.9457 110.954 84.7559 111.907 84.3642L111.375 83.0694ZM109.256 83.5001C108.626 83.4481 108.112 83.2632 107.689 82.963L106.879 84.1045C107.531 84.5675 108.293 84.8253 109.14 84.8953L109.256 83.5001ZM107.706 82.9756C107.283 82.6549 106.959 82.2324 106.735 81.6897L105.441 82.2221C105.753 82.9816 106.226 83.611 106.861 84.0919L107.706 82.9756ZM106.735 81.6897C106.364 80.785 106.438 80.0252 106.904 79.3212L105.737 78.5478C104.99 79.6748 104.909 80.9293 105.441 82.2221L106.735 81.6897ZM106.904 79.3212C107.397 78.5777 108.402 77.8367 110.061 77.1546L109.528 75.8598C107.769 76.5831 106.458 77.4603 105.737 78.5478L106.904 79.3212ZM110.061 77.1546L111.912 76.3934L111.38 75.0985L109.528 75.8598L110.061 77.1546ZM112.239 75.374C111.888 74.8147 111.376 74.4493 110.724 74.3403C110.107 74.2369 109.436 74.3756 108.749 74.6579L109.281 75.9528C109.842 75.7221 110.234 75.6776 110.493 75.7211C110.719 75.7589 110.898 75.8704 111.053 76.1179L112.239 75.374ZM108.749 74.6579C108.176 74.8935 107.64 75.2227 107.141 75.6397L108.038 76.7141C108.436 76.3818 108.85 76.1299 109.281 75.9528L108.749 74.6579ZM107.154 75.6291C106.646 76.033 106.232 76.4851 105.927 76.9897L107.125 77.7133C107.33 77.374 107.625 77.0431 108.025 76.7248L107.154 75.6291ZM106.993 76.8301L104.282 74.4007L103.348 75.4433L106.059 77.8728L106.993 76.8301ZM104.381 75.3332C104.805 74.7492 105.389 74.1789 106.149 73.6275L105.326 72.4946C104.474 73.1134 103.776 73.7838 103.248 74.5108L104.381 75.3332ZM106.155 73.6231C106.924 73.0518 107.729 72.595 108.568 72.25L108.035 70.9551C107.084 71.3463 106.179 71.8618 105.32 72.499L106.155 73.6231ZM112.153 81.0281C112.603 80.843 112.972 80.5459 113.238 80.1405L112.068 79.3724C111.963 79.5316 111.821 79.6506 111.62 79.7333L112.153 81.0281ZM113.238 80.1405C113.521 79.7097 113.625 79.2115 113.595 78.6889L112.197 78.7684C112.214 79.0516 112.155 79.2386 112.068 79.3724L113.238 80.1405ZM113.544 78.4625L113.226 77.6893L111.931 78.2216L112.249 78.9948L113.544 78.4625ZM112.312 77.308L111.173 77.7765L111.705 79.0713L112.845 78.6029L112.312 77.308ZM111.173 77.7765C110.653 77.9901 110.185 78.2797 109.902 78.6998C109.585 79.1698 109.567 79.7027 109.772 80.2033L111.067 79.671C111.037 79.5963 111.036 79.5567 111.037 79.543C111.038 79.5325 111.041 79.5148 111.063 79.4819C111.12 79.3976 111.289 79.2426 111.705 79.0713L111.173 77.7765ZM109.772 80.2033C109.953 80.6422 110.283 80.9606 110.727 81.1267L111.218 79.8156C111.137 79.7852 111.099 79.7475 111.067 79.671L109.772 80.2033ZM110.776 81.143C111.239 81.2786 111.711 81.2096 112.153 81.0281L111.62 79.7333C111.384 79.8306 111.246 79.8219 111.169 79.7993L110.776 81.143ZM78.6148 106.383L79.2623 106.117L78.9961 105.47L78.3487 105.736L78.6148 106.383ZM74.4436 108.098L73.7962 108.364L74.0624 109.012L74.7098 108.746L74.4436 108.098ZM72.9127 104.375L72.6466 103.727L71.9991 103.993L72.2653 104.641L72.9127 104.375ZM86.0572 98.9706L86.7046 98.7045L86.4385 98.057L85.791 98.3232L86.0572 98.9706ZM87.5881 102.694L87.8543 103.342L88.5017 103.075L88.2355 102.428L87.5881 102.694ZM83.4169 104.409L83.1507 103.762L82.5033 104.028L82.7694 104.675L83.4169 104.409ZM87.7418 114.929L88.008 115.576L88.6554 115.31L88.3892 114.663L87.7418 114.929ZM82.9398 116.903L82.2924 117.169L82.5585 117.817L83.2059 117.55L82.9398 116.903ZM78.3487 105.736L74.1774 107.451L74.7098 108.746L78.881 107.031L78.3487 105.736ZM75.091 107.832L73.5602 104.109L72.2653 104.641L73.7962 108.364L75.091 107.832ZM73.1789 105.022L86.3234 99.618L85.791 98.3232L72.6466 103.727L73.1789 105.022ZM85.4098 99.2368L86.9407 102.96L88.2355 102.428L86.7046 98.7045L85.4098 99.2368ZM87.3219 102.047L83.1507 103.762L83.683 105.057L87.8543 103.342L87.3219 102.047ZM82.7694 104.675L87.0944 115.195L88.3892 114.663L84.0643 104.143L82.7694 104.675ZM87.4756 114.281L82.6736 116.256L83.2059 117.55L88.008 115.576L87.4756 114.281ZM83.5872 116.637L79.2623 106.117L77.9674 106.65L82.2924 117.169L83.5872 116.637ZM101.837 103.877L102.104 104.524L102.712 104.274L102.5 103.651L101.837 103.877ZM94.1054 107.056L93.8393 106.408L92.8944 106.797L93.5978 107.538L94.1054 107.056ZM95.3209 107.698L95.2124 108.389L95.2216 108.391L95.2308 108.392L95.3209 107.698ZM98.0246 106.753L97.5548 106.234L97.5481 106.24L98.0246 106.753ZM98.8641 105.67L99.1364 105.025L98.5716 104.787L98.2607 105.315L98.8641 105.67ZM102.261 107.104L102.919 107.343L103.145 106.718L102.533 106.459L102.261 107.104ZM94.292 111.617L94.2443 112.316L94.2518 112.316L94.292 111.617ZM91.0785 110.512L91.484 109.942L91.0785 110.512ZM88.6154 104.579L87.9258 104.459L87.9253 104.462L88.6154 104.579ZM90.0291 101.596L89.4989 101.138L89.4963 101.142L90.0291 101.596ZM96.3117 98.9412L96.2685 99.6399L96.2725 99.6401L96.3117 98.9412ZM99.341 100.003L98.933 100.572L98.9394 100.576L99.341 100.003ZM93.2709 103.521L93.8885 103.851L93.2709 103.521ZM93.1122 104.871L92.4252 105.005L92.5887 105.843L93.3784 105.519L93.1122 104.871ZM96.6934 103.399L96.9596 104.046L97.7538 103.72L97.2738 103.008L96.6934 103.399ZM95.6396 102.571L95.4156 103.235L95.424 103.237L95.4325 103.24L95.6396 102.571ZM100.808 103.039C100.807 103.038 100.815 103.058 100.835 103.115C100.854 103.167 100.879 103.238 100.91 103.329C100.973 103.511 101.061 103.769 101.175 104.102L102.5 103.651C102.279 103.001 102.141 102.601 102.103 102.507L100.808 103.039ZM101.571 103.229L93.8393 106.408L94.3716 107.703L102.104 104.524L101.571 103.229ZM93.5978 107.538C94.038 108.001 94.5828 108.29 95.2124 108.389L95.4294 107.006C95.1097 106.956 94.8442 106.817 94.6131 106.574L93.5978 107.538ZM95.2308 108.392C95.8518 108.472 96.496 108.352 97.1452 108.085L96.6129 106.79C96.1226 106.992 95.7281 107.045 95.411 107.004L95.2308 108.392ZM97.1452 108.085C97.6822 107.864 98.1449 107.596 98.5012 107.265L97.5481 106.24C97.3536 106.421 97.0526 106.609 96.6129 106.79L97.1452 108.085ZM98.4944 107.272C98.8513 106.949 99.1731 106.525 99.4674 106.025L98.2607 105.315C98.0137 105.735 97.7758 106.034 97.5549 106.234L98.4944 107.272ZM98.5917 106.315L101.988 107.749L102.533 106.459L99.1364 105.025L98.5917 106.315ZM101.602 106.866C101.096 108.264 99.9063 109.409 97.8675 110.247L98.3998 111.542C100.675 110.606 102.236 109.225 102.919 107.343L101.602 106.866ZM97.8675 110.247C96.6033 110.767 95.4276 110.981 94.3322 110.918L94.2518 112.316C95.5927 112.393 96.9781 112.126 98.3998 111.542L97.8675 110.247ZM94.3398 110.919C93.2331 110.843 92.2883 110.513 91.484 109.942L90.6729 111.083C91.706 111.817 92.9036 112.224 94.2443 112.316L94.3398 110.919ZM91.484 109.942C90.679 109.369 90.0746 108.602 89.6703 107.618L88.3754 108.151C88.8746 109.365 89.6405 110.349 90.6729 111.083L91.484 109.942ZM89.6703 107.618C89.2584 106.616 89.1437 105.647 89.3055 104.697L87.9253 104.462C87.7157 105.693 87.8727 106.928 88.3754 108.151L89.6703 107.618ZM89.305 104.699C89.4766 103.715 89.8922 102.835 90.5619 102.05L89.4963 101.142C88.6684 102.113 88.1415 103.222 87.9258 104.459L89.305 104.699ZM90.5592 102.053C91.2425 101.26 92.1265 100.634 93.2293 100.18L92.697 98.8855C91.4124 99.4136 90.3404 100.162 89.4989 101.138L90.5592 102.053ZM93.2293 100.18C94.267 99.7537 95.2777 99.5786 96.2685 99.6399L96.3549 98.2425C95.1327 98.167 93.9111 98.3863 92.697 98.8855L93.2293 100.18ZM96.2725 99.6401C97.2616 99.6956 98.1431 100.005 98.9331 100.572L99.7489 99.4342C98.7398 98.7105 97.6018 98.3125 96.3509 98.2423L96.2725 99.6401ZM98.9394 100.576C99.7253 101.127 100.353 101.934 100.808 103.039L102.103 102.507C101.564 101.198 100.783 100.158 99.7426 99.4297L98.9394 100.576ZM94.026 102.002C93.428 102.248 92.9489 102.638 92.6534 103.192L93.8885 103.851C94.005 103.633 94.2067 103.442 94.5583 103.297L94.026 102.002ZM92.6534 103.192C92.3574 103.746 92.3004 104.366 92.4252 105.005L93.7993 104.737C93.7236 104.349 93.7724 104.069 93.8885 103.851L92.6534 103.192ZM93.3784 105.519L96.9596 104.046L96.4272 102.751L92.8461 104.224L93.3784 105.519ZM97.2738 103.008C96.9153 102.476 96.4413 102.087 95.8467 101.903L95.4325 103.24C95.6738 103.315 95.9023 103.478 96.1129 103.79L97.2738 103.008ZM95.8636 101.908C95.2566 101.703 94.6323 101.753 94.026 102.002L94.5583 103.297C94.9015 103.156 95.1756 103.154 95.4156 103.235L95.8636 101.908ZM106.703 107.014L106.824 107.704L106.703 107.014ZM104.139 107.141L103.439 107.138L103.436 107.756L104.048 107.835L104.139 107.141ZM104.154 103.591L104.261 102.899L103.457 102.774L103.454 103.588L104.154 103.591ZM106.286 103.57L106.185 102.878L106.286 103.57ZM109.499 102.416L109.986 102.918L109.994 102.91L110.002 102.902L109.499 102.416ZM109.099 101.676L109.192 102.37L109.2 102.369L109.099 101.676ZM107.734 102L107.921 102.674L107.925 102.673L107.734 102ZM105.247 102.546L105.331 103.242L105.345 103.24L105.247 102.546ZM103.148 102.244L102.869 102.886L102.878 102.89L103.148 102.244ZM101.431 98.2401L100.754 98.0594L101.431 98.2401ZM102.803 96.0821L102.32 95.5759L102.317 95.5785L102.803 96.0821ZM108.27 93.5254L108.401 94.213L108.415 94.2102L108.27 93.5254ZM110.621 93.3436L111.321 93.3466L111.324 92.7058L110.686 92.6466L110.621 93.3436ZM110.606 96.894L110.524 97.5892L111.303 97.6808L111.306 96.897L110.606 96.894ZM106.334 98.7692L106.403 99.4658L106.419 99.4642L106.435 99.4619L106.334 98.7692ZM107.7 98.4457L107.512 97.7713L107.51 97.7719L107.7 98.4457ZM110.175 97.9277L110.255 98.6231L110.259 98.6226L110.175 97.9277ZM112.253 98.2388L111.974 98.881L111.983 98.8848L112.253 98.2388ZM113.974 102.193L114.65 102.374L113.974 102.193ZM112.581 104.36L113.065 104.866L112.581 104.36ZM109.37 105.518C108.467 105.889 107.538 106.158 106.583 106.325L106.824 107.704C107.88 107.519 108.906 107.222 109.903 106.813L109.37 105.518ZM106.583 106.325C105.618 106.493 104.839 106.526 104.229 106.447L104.048 107.835C104.845 107.939 105.776 107.887 106.824 107.704L106.583 106.325ZM104.839 107.144L104.854 103.594L103.454 103.588L103.439 107.138L104.839 107.144ZM104.046 104.282C104.772 104.395 105.554 104.385 106.387 104.263L106.185 102.878C105.462 102.983 104.823 102.986 104.261 102.899L104.046 104.282ZM106.387 104.263C107.217 104.142 107.994 103.934 108.716 103.637L108.184 102.342C107.577 102.592 106.911 102.771 106.185 102.878L106.387 104.263ZM108.716 103.637C109.243 103.42 109.709 103.187 109.986 102.918L109.011 101.914C108.948 101.975 108.715 102.124 108.184 102.342L108.716 103.637ZM110.002 102.902C110.294 102.6 110.52 102.134 110.304 101.609L109.009 102.141C109 102.118 108.991 102.086 108.989 102.047C108.987 102.008 108.992 101.973 109 101.946C109.015 101.895 109.033 101.891 108.995 101.929L110.002 102.902ZM110.304 101.609C110.19 101.33 109.971 101.131 109.698 101.034C109.455 100.947 109.206 100.953 108.998 100.984L109.2 102.369C109.292 102.355 109.285 102.373 109.228 102.352C109.194 102.34 109.147 102.316 109.102 102.274C109.056 102.231 109.026 102.183 109.009 102.141L110.304 101.609ZM109.007 100.982C108.667 101.028 108.17 101.148 107.542 101.326L107.925 102.673C108.547 102.496 108.96 102.401 109.192 102.37L109.007 100.982ZM107.546 101.325C106.612 101.585 105.814 101.76 105.149 101.853L105.345 103.24C106.088 103.135 106.949 102.945 107.921 102.674L107.546 101.325ZM105.163 101.852C104.578 101.922 104 101.841 103.418 101.598L102.878 102.89C103.674 103.222 104.495 103.342 105.331 103.241L105.163 101.852ZM103.427 101.602C102.968 101.403 102.55 100.973 102.222 100.175L100.927 100.707C101.346 101.726 101.977 102.499 102.869 102.886L103.427 101.602ZM102.222 100.175C101.984 99.5968 101.947 99.0202 102.107 98.4207L100.754 98.0594C100.515 98.9563 100.573 99.8468 100.927 100.707L102.222 100.175ZM102.107 98.4207C102.266 97.8257 102.64 97.2124 103.289 96.5857L102.317 95.5785C101.536 96.3327 100.995 97.158 100.754 98.0594L102.107 98.4207ZM103.287 96.5883C103.937 95.9673 104.824 95.4134 105.973 94.9409L105.441 93.646C104.176 94.1662 103.127 94.8047 102.32 95.5759L103.287 96.5883ZM105.973 94.9409C106.772 94.6124 107.582 94.3701 108.401 94.2129L108.138 92.8379C107.223 93.0133 106.324 93.283 105.441 93.646L105.973 94.9409ZM108.415 94.2102C109.24 94.0355 109.951 93.9845 110.556 94.0406L110.686 92.6466C109.906 92.5743 109.05 92.6446 108.125 92.8406L108.415 94.2102ZM109.921 93.3406L109.906 96.8911L111.306 96.897L111.321 93.3466L109.921 93.3406ZM110.688 96.1988C109.365 96.0432 108.062 96.2317 106.79 96.7545L107.323 98.0493C108.384 97.6128 109.448 97.4627 110.524 97.5892L110.688 96.1988ZM106.79 96.7545C106.268 96.9691 105.821 97.204 105.516 97.4758C105.361 97.614 105.204 97.7952 105.114 98.0273C105.017 98.2802 105.014 98.556 105.121 98.8161L106.416 98.2838C106.45 98.3675 106.447 98.4633 106.42 98.5323C106.401 98.5805 106.388 98.5742 106.447 98.521C106.572 98.4101 106.841 98.2473 107.323 98.0493L106.79 96.7545ZM105.121 98.8161C105.235 99.0935 105.45 99.2886 105.711 99.3897C105.947 99.4811 106.193 99.4867 106.403 99.4658L106.265 98.0726C106.171 98.082 106.17 98.0661 106.217 98.0843C106.245 98.0953 106.287 98.1171 106.328 98.1567C106.37 98.1969 106.399 98.2424 106.416 98.2838L105.121 98.8161ZM106.435 99.4619C106.782 99.4113 107.273 99.2928 107.889 99.1195L107.51 97.7719C106.904 97.9425 106.485 98.0398 106.233 98.0766L106.435 99.4619ZM107.887 99.1201C108.819 98.8611 109.606 98.6978 110.255 98.6231L110.095 97.2323C109.35 97.318 108.488 97.5 107.512 97.7713L107.887 99.1201ZM110.259 98.6226C110.841 98.5522 111.409 98.6357 111.974 98.8809L112.532 97.5966C111.746 97.2555 110.928 97.1316 110.091 97.2328L110.259 98.6226ZM111.983 98.8848C112.452 99.0804 112.874 99.5061 113.2 100.3L114.495 99.7672C114.074 98.743 113.432 97.9723 112.523 97.5928L111.983 98.8848ZM113.2 100.3C113.424 100.844 113.46 101.407 113.298 102.013L114.65 102.374C114.888 101.483 114.84 100.606 114.495 99.7672L113.2 100.3ZM113.298 102.013C113.14 102.605 112.761 103.22 112.098 103.854L113.065 104.866C113.859 104.107 114.409 103.279 114.65 102.374L113.298 102.013ZM112.098 103.854C111.449 104.473 110.549 105.033 109.37 105.518L109.903 106.813C111.193 106.282 112.256 105.638 113.065 104.866L112.098 103.854ZM124.745 99.2639L125.296 99.6951L125.654 99.2377L125.27 98.8016L124.745 99.2639ZM118.097 101.378L117.861 102.037L117.867 102.039L118.097 101.378ZM114.268 95.6503L114.915 95.3841L114.649 94.7367L114.001 95.0029L114.268 95.6503ZM112.742 96.2777L112.094 96.5439L112.36 97.1913L113.008 96.9251L112.742 96.2777ZM111.361 92.9204L111.095 92.273L110.448 92.5391L110.714 93.1866L111.361 92.9204ZM112.887 92.293L113.153 92.9404L113.801 92.6742L113.535 92.0268L112.887 92.293ZM111.607 89.1798L111.341 88.5324L110.694 88.7986L110.96 89.446L111.607 89.1798ZM116.206 87.2892L116.853 87.0231L116.587 86.3756L115.94 86.6418L116.206 87.2892ZM117.486 90.4024L116.838 90.6686L117.105 91.316L117.752 91.0498L117.486 90.4024ZM119.765 89.4655L120.412 89.1993L120.146 88.5519L119.499 88.818L119.765 89.4655ZM121.145 92.8228L121.411 93.4702L122.059 93.204L121.792 92.5566L121.145 92.8228ZM118.866 93.7597L118.6 93.1123L117.953 93.3785L118.219 94.0259L118.866 93.7597ZM120.611 97.2525L120.318 97.8881L120.611 97.2525ZM122.332 96.5211L122.858 96.0588L122.252 95.37L121.748 96.1361L122.332 96.5211ZM124.193 98.8327C123.766 99.3788 123.026 99.9034 121.893 100.369L122.425 101.664C123.679 101.149 124.663 100.505 125.296 99.6951L124.193 98.8327ZM121.893 100.369C120.43 100.971 119.261 101.043 118.328 100.717L117.867 102.039C119.229 102.515 120.768 102.345 122.425 101.664L121.893 100.369ZM118.334 100.719C117.423 100.393 116.656 99.6186 116.086 98.2328L114.791 98.7651C115.46 100.391 116.465 101.536 117.861 102.037L118.334 100.719ZM116.086 98.2328L114.915 95.3841L113.62 95.9165L114.791 98.7651L116.086 98.2328ZM114.001 95.0029L112.475 95.6303L113.008 96.9251L114.534 96.2977L114.001 95.0029ZM113.389 96.0115L112.009 92.6542L110.714 93.1866L112.094 96.5439L113.389 96.0115ZM111.627 93.5678L113.153 92.9404L112.621 91.6456L111.095 92.273L111.627 93.5678ZM113.535 92.0268L112.255 88.9136L110.96 89.446L112.24 92.5592L113.535 92.0268ZM111.874 89.8272L116.472 87.9366L115.94 86.6418L111.341 88.5324L111.874 89.8272ZM115.558 87.5554L116.838 90.6686L118.133 90.1362L116.853 87.0231L115.558 87.5554ZM117.752 91.0498L120.031 90.1129L119.499 88.818L117.22 89.755L117.752 91.0498ZM119.117 89.7316L120.498 93.089L121.792 92.5566L120.412 89.1993L119.117 89.7316ZM120.879 92.1754L118.6 93.1123L119.132 94.4071L121.411 93.4702L120.879 92.1754ZM118.219 94.0259L119.373 96.8338L120.668 96.3015L119.514 93.4935L118.219 94.0259ZM119.373 96.8338C119.558 97.2845 119.859 97.6761 120.318 97.8881L120.905 96.6169C120.855 96.5941 120.762 96.5291 120.668 96.3015L119.373 96.8338ZM120.318 97.8881C120.768 98.0956 121.241 98.0833 121.686 97.9003L121.154 96.6055C121.029 96.6568 120.964 96.6442 120.905 96.6169L120.318 97.8881ZM121.686 97.9003C122.198 97.6901 122.618 97.3602 122.917 96.906L121.748 96.1361C121.617 96.3343 121.429 96.4923 121.154 96.6055L121.686 97.9003ZM121.807 96.9833L124.219 99.7262L125.27 98.8016L122.858 96.0588L121.807 96.9833Z" fill="#FFCBE3"/>
</svg>
